<svg xmlns="http://www.w3.org/2000/svg" viewBox="0 0 96 96">
  <defs><linearGradient id="bg" x1="8" y1="8" x2="88" y2="88"><stop stop-color="#164e63"/><stop offset="1" stop-color="#581c87"/></linearGradient></defs>
  <rect x="3" y="3" width="90" height="90" rx="24" fill="url(#bg)" stroke="#c4b5fd" stroke-width="3"/>
  <path d="M18 24h52v45H18Z" fill="#e0f2fe" stroke="#67e8f9" stroke-width="3" transform="rotate(-5 44 46.5)"/>
  <path d="M25 20h52v45H25Z" fill="#fdf2f8" stroke="#f9a8d4" stroke-width="3" transform="rotate(4 51 42.5)"/>
  <path d="M23 32c9-9 17 9 26 0s16 9 25 0M25 49c8-8 13 7 22 0" fill="none" stroke="#8b5cf6" stroke-width="5" stroke-linecap="round"/>
  <path d="m65 70 15-28 7 4-17 27Z" fill="#fbbf24" stroke="#fef3c7" stroke-width="2" stroke-linejoin="round"/>
  <path d="m65 70 5 3-9 8Z" fill="#22d3ee" stroke="#cffafe" stroke-width="2" stroke-linejoin="round"/>
  <path d="m80 42 4-7 7 4-4 7Z" fill="#f472b6"/>
</svg>
