<svg xmlns="http://www.w3.org/2000/svg" viewBox="0 0 96 96">
  <defs>
    <linearGradient id="bg" x1="7" y1="8" x2="89" y2="88"><stop stop-color="#062d3b"/><stop offset=".48" stop-color="#18162d"/><stop offset="1" stop-color="#43113e"/></linearGradient>
    <linearGradient id="paint" x1="20" y1="68" x2="76" y2="29"><stop stop-color="#22d3ee"/><stop offset=".32" stop-color="#818cf8"/><stop offset=".67" stop-color="#f472b6"/><stop offset="1" stop-color="#facc15"/></linearGradient>
    <linearGradient id="brush" x1="63" y1="18" x2="75" y2="73"><stop stop-color="#fff7c2"/><stop offset=".45" stop-color="#fbbf24"/><stop offset="1" stop-color="#b45309"/></linearGradient>
    <filter id="glow"><feGaussianBlur stdDeviation="2.2" result="b"/><feMerge><feMergeNode in="b"/><feMergeNode in="SourceGraphic"/></feMerge></filter>
  </defs>
  <rect x="3" y="3" width="90" height="90" rx="22" fill="url(#bg)" stroke="#c084fc" stroke-width="2.5"/>
  <path d="m15 29 53-9 10 52-53 9Z" fill="#0f2940" stroke="#67e8f9" stroke-width="2"/>
  <path d="m21 21 54 5-5 52-54-5Z" fill="#fff" stroke="#f5d0fe" stroke-width="2.5"/>
  <path d="M24 61c9-18 14-10 21-22 6-10 12 9 25-5" fill="none" stroke="url(#paint)" stroke-width="11" stroke-linecap="round" filter="url(#glow)"/>
  <path d="m66 66 12-47 8 2-12 47Z" fill="url(#brush)" stroke="#fff7c2" stroke-width="2" stroke-linejoin="round"/>
  <path d="m66 66 8 2-10 13Z" fill="#22d3ee" stroke="#cffafe" stroke-width="2" stroke-linejoin="round"/>
  <path d="m78 19 2-8 8 2-2 8Z" fill="#f472b6"/>
  <g fill="#f8fafc"><circle cx="29" cy="30" r="2"/><circle cx="59" cy="62" r="2.5"/><circle cx="35" cy="66" r="1.5"/></g>
</svg>
