<svg xmlns="http://www.w3.org/2000/svg" viewBox="0 0 96 96">
  <defs>
    <linearGradient id="bg" x1="8" y1="8" x2="88" y2="88"><stop stop-color="#300a20"/><stop offset=".48" stop-color="#111827"/><stop offset="1" stop-color="#052b3d"/></linearGradient>
    <linearGradient id="signal" x1="12" y1="75" x2="84" y2="22"><stop stop-color="#f43f5e"/><stop offset=".5" stop-color="#a78bfa"/><stop offset="1" stop-color="#22d3ee"/></linearGradient>
    <filter id="glow"><feGaussianBlur stdDeviation="2.5" result="b"/><feMerge><feMergeNode in="b"/><feMergeNode in="SourceGraphic"/></feMerge></filter>
  </defs>
  <rect x="3" y="3" width="90" height="90" rx="22" fill="url(#bg)" stroke="#fb7185" stroke-width="2.5"/>
  <g fill="#111827" stroke-width="2.2" transform="rotate(-5 48 43)"><rect x="15" y="25" width="20" height="31" rx="4" stroke="#fb7185"/><rect x="38" y="22" width="20" height="34" rx="4" stroke="#c084fc"/><rect x="61" y="19" width="20" height="37" rx="4" stroke="#22d3ee"/></g>
  <circle cx="25" cy="40" r="4" fill="none" stroke="#fda4af" stroke-width="2.5"/>
  <path d="m43 44 5-9 5 9Z" fill="none" stroke="#d8b4fe" stroke-width="2.5" stroke-linejoin="round"/>
  <rect x="67" y="31" width="8" height="8" fill="none" stroke="#67e8f9" stroke-width="2.5"/>
  <path d="M12 71c17-19 55-19 72 0M22 73c13-12 39-12 52 0M35 75c7-5 19-5 26 0" fill="none" stroke="url(#signal)" stroke-width="3.5" stroke-linecap="round" filter="url(#glow)"/>
  <circle cx="48" cy="78" r="4.5" fill="#facc15" stroke="#fff7c2" stroke-width="2"/>
  <path d="m16 18 65 49" stroke="#f8fafc" stroke-width="1.4" stroke-dasharray="2 5" opacity=".45"/>
  <path d="M72 13v9m-4-4h9" stroke="#67e8f9" stroke-width="2" stroke-linecap="round"/>
</svg>
