<svg xmlns="http://www.w3.org/2000/svg" viewBox="0 0 96 96">
  <defs><linearGradient id="bg" x1="8" y1="8" x2="88" y2="88"><stop stop-color="#4c0519"/><stop offset=".5" stop-color="#1e293b"/><stop offset="1" stop-color="#082f49"/></linearGradient></defs>
  <rect x="3" y="3" width="90" height="90" rx="24" fill="url(#bg)" stroke="#fda4af" stroke-width="3"/>
  <path d="M18 24h18v25H18ZM39 24h18v25H39ZM60 24h18v25H60Z" fill="#fff1f2" stroke="#fb7185" stroke-width="2" stroke-linejoin="round"/>
  <text x="27" y="42" text-anchor="middle" font-family="sans-serif" font-size="17" font-weight="900" fill="#9f1239">1</text>
  <text x="48" y="42" text-anchor="middle" font-family="sans-serif" font-size="17" font-weight="900" fill="#9f1239">2</text>
  <text x="69" y="42" text-anchor="middle" font-family="sans-serif" font-size="17" font-weight="900" fill="#9f1239">3</text>
  <path d="M30 73c10-11 26-11 36 0M37 65c6-6 16-6 22 0M45 57c2-2 4-2 6 0" fill="none" stroke="#67e8f9" stroke-width="4" stroke-linecap="round"/>
  <circle cx="48" cy="78" r="5" fill="#fbbf24" stroke="#fef3c7" stroke-width="2"/>
  <path d="M15 56h14M67 56h14" stroke="#fda4af" stroke-width="3" stroke-linecap="round" stroke-dasharray="3 4"/>
</svg>
