<svg xmlns="http://www.w3.org/2000/svg" viewBox="0 0 96 96">
  <defs>
    <linearGradient id="bg" x1="8" y1="8" x2="88" y2="88"><stop stop-color="#06213a"/><stop offset=".5" stop-color="#111827"/><stop offset="1" stop-color="#3b0c4a"/></linearGradient>
    <linearGradient id="rail" x1="48" y1="16" x2="48" y2="80"><stop stop-color="#22d3ee"/><stop offset=".5" stop-color="#a78bfa"/><stop offset="1" stop-color="#f472b6"/></linearGradient>
    <filter id="glow"><feGaussianBlur stdDeviation="2.5" result="b"/><feMerge><feMergeNode in="b"/><feMergeNode in="SourceGraphic"/></feMerge></filter>
  </defs>
  <rect x="3" y="3" width="90" height="90" rx="22" fill="url(#bg)" stroke="#7dd3fc" stroke-width="2.5"/>
  <path d="M48 15v66" stroke="#e0f2fe" stroke-width="2" opacity=".35"/>
  <path d="M48 17v62" stroke="url(#rail)" stroke-width="5" stroke-linecap="round" filter="url(#glow)"/>
  <g stroke="#e0f2fe" stroke-width="2" stroke-linecap="round"><path d="M39 22h18"/><path d="M42 35h12"/><path d="M39 48h18"/><path d="M42 61h12"/><path d="M39 74h18"/></g>
  <path d="m48 38 10 10-10 10-10-10Z" fill="#facc15" stroke="#fff7c2" stroke-width="2" filter="url(#glow)"/>
  <path d="M11 22h25v19H23l-8 7v-7h-4Z" fill="#083d5a" stroke="#22d3ee" stroke-width="2.5" stroke-linejoin="round"/>
  <path d="M60 56h25v19h-4v7l-8-7H60Z" fill="#4a103f" stroke="#f472b6" stroke-width="2.5" stroke-linejoin="round"/>
  <path d="M18 30h12M66 64h12" stroke="#f8fafc" stroke-width="3" stroke-linecap="round"/>
  <circle cx="48" cy="48" r="23" fill="none" stroke="#a78bfa" stroke-width="1.5" stroke-dasharray="2 6" opacity=".55"/>
</svg>
