<svg xmlns="http://www.w3.org/2000/svg" viewBox="0 0 96 96">
  <defs>
    <radialGradient id="bg" cx="50%" cy="48%" r="68%"><stop stop-color="#08354b"/><stop offset=".54" stop-color="#071b2d"/><stop offset="1" stop-color="#160b2b"/></radialGradient>
    <linearGradient id="sweep" x1="48" y1="48" x2="82" y2="20"><stop stop-color="#22d3ee" stop-opacity=".05"/><stop offset="1" stop-color="#67e8f9" stop-opacity=".72"/></linearGradient>
    <filter id="glow"><feGaussianBlur stdDeviation="2.2" result="b"/><feMerge><feMergeNode in="b"/><feMergeNode in="SourceGraphic"/></feMerge></filter>
  </defs>
  <rect x="3" y="3" width="90" height="90" rx="22" fill="url(#bg)" stroke="#22d3ee" stroke-width="2.5"/>
  <circle cx="48" cy="48" r="33" fill="#061726" stroke="#a5f3fc" stroke-width="2.5"/>
  <g fill="none" stroke="#155e75" stroke-width="1.5"><circle cx="48" cy="48" r="23"/><circle cx="48" cy="48" r="13"/><path d="M15 48h66M48 15v66"/></g>
  <path d="M48 48 76 20A40 40 0 0 1 81 48Z" fill="url(#sweep)"/>
  <path d="M48 48 75 21" stroke="#67e8f9" stroke-width="2.5" stroke-linecap="round" filter="url(#glow)"/>
  <g fill="#facc15" filter="url(#glow)"><circle cx="64" cy="38" r="3.5"/><circle cx="32" cy="61" r="2.5"/></g>
  <path d="M41 42h14v12H41Z" fill="#f472b6" stroke="#fce7f3" stroke-width="2" transform="rotate(-8 48 48)" filter="url(#glow)"/>
  <path d="M44 46h8M44 50h6" stroke="#4a044e" stroke-width="1.8" stroke-linecap="round"/>
  <path d="M20 73c16 9 40 9 56 0" fill="none" stroke="#22d3ee" stroke-width="2" stroke-linecap="round" stroke-dasharray="2 6"/>
</svg>
