<svg xmlns="http://www.w3.org/2000/svg" viewBox="0 0 96 96">
  <defs><linearGradient id="bg" x1="10" y1="8" x2="86" y2="88"><stop stop-color="#312e81"/><stop offset="1" stop-color="#1e1b4b"/></linearGradient></defs>
  <rect x="3" y="3" width="90" height="90" rx="24" fill="url(#bg)" stroke="#a5b4fc" stroke-width="3"/>
  <g fill="#e0e7ff" stroke="#818cf8" stroke-width="2">
    <rect x="16" y="18" width="24" height="24" rx="6"/><rect x="44" y="18" width="24" height="24" rx="6"/>
    <rect x="16" y="46" width="24" height="24" rx="6"/><rect x="44" y="46" width="24" height="24" rx="6"/>
  </g>
  <path d="M24 30h8M52 30h8M24 58h8M52 58h8" stroke="#4338ca" stroke-width="4" stroke-linecap="round"/>
  <rect x="65" y="60" width="20" height="20" rx="6" fill="#fbbf24" stroke="#fef3c7" stroke-width="3" transform="rotate(-9 75 70)"/>
  <path d="M73 67h5M75.5 64.5v5" stroke="#92400e" stroke-width="3" stroke-linecap="round"/>
  <path d="M58 77c8 5 16 5 23 0" fill="none" stroke="#f472b6" stroke-width="3" stroke-linecap="round" stroke-dasharray="3 5"/>
</svg>
