<svg xmlns="http://www.w3.org/2000/svg" viewBox="0 0 96 96">
  <defs>
    <linearGradient id="bg" x1="9" y1="7" x2="87" y2="89"><stop stop-color="#11163b"/><stop offset=".55" stop-color="#17152f"/><stop offset="1" stop-color="#2e0f38"/></linearGradient>
    <linearGradient id="tiles" x1="19" y1="20" x2="67" y2="68"><stop stop-color="#e0f2fe"/><stop offset=".5" stop-color="#a5b4fc"/><stop offset="1" stop-color="#c084fc"/></linearGradient>
    <linearGradient id="out" x1="62" y1="57" x2="87" y2="82"><stop stop-color="#fff7ad"/><stop offset=".45" stop-color="#fbbf24"/><stop offset="1" stop-color="#f97316"/></linearGradient>
    <filter id="glow"><feGaussianBlur stdDeviation="2.2" result="b"/><feMerge><feMergeNode in="b"/><feMergeNode in="SourceGraphic"/></feMerge></filter>
  </defs>
  <rect x="3" y="3" width="90" height="90" rx="22" fill="url(#bg)" stroke="#a78bfa" stroke-width="2.5"/>
  <g fill="url(#tiles)" stroke="#eef2ff" stroke-width="2"><path d="M17 19h21v21H17Z"/><path d="M43 19h21v21H43Z"/><path d="M17 45h21v21H17Z"/><path d="M43 45h21v21H43Z"/></g>
  <g fill="#312e81"><circle cx="27.5" cy="29.5" r="3"/><path d="m49 25 10 10m0-10L49 35" stroke="#312e81" stroke-width="3"/><path d="M23 55h9" stroke="#312e81" stroke-width="3"/><path d="m49 61 5-10 5 10Z"/></g>
  <path d="M63 64 82 57l8 20-20 8Z" fill="url(#out)" stroke="#fff7c2" stroke-width="2.5" stroke-linejoin="round" filter="url(#glow)"/>
  <path d="M69 51 79 43M73 57l13-5M61 72l-11 6" stroke="#f472b6" stroke-width="2.5" stroke-linecap="round"/>
  <path d="m72 69 10 4-8 5Z" fill="#7c2d12"/>
</svg>
