<svg xmlns="http://www.w3.org/2000/svg" viewBox="0 0 96 96">
  <defs>
    <linearGradient id="bg" x1="10" y1="8" x2="86" y2="88"><stop stop-color="#071d36"/><stop offset=".55" stop-color="#111827"/><stop offset="1" stop-color="#25103f"/></linearGradient>
    <linearGradient id="pine" x1="27" y1="72" x2="69" y2="20"><stop stop-color="#22c55e"/><stop offset=".55" stop-color="#86efac"/><stop offset="1" stop-color="#d9f99d"/></linearGradient>
    <linearGradient id="coin" x1="19" y1="58" x2="39" y2="80"><stop stop-color="#fff7ad"/><stop offset=".45" stop-color="#fbbf24"/><stop offset="1" stop-color="#d97706"/></linearGradient>
    <filter id="glow"><feGaussianBlur stdDeviation="2" result="b"/><feMerge><feMergeNode in="b"/><feMergeNode in="SourceGraphic"/></feMerge></filter>
  </defs>
  <rect x="3" y="3" width="90" height="90" rx="22" fill="url(#bg)" stroke="#818cf8" stroke-width="2.5"/>
  <path d="M19 76 72 18" stroke="#b45309" stroke-width="6" stroke-linecap="round"/>
  <g fill="none" stroke="url(#pine)" stroke-width="6" stroke-linecap="round" stroke-linejoin="round" filter="url(#glow)"><path d="m29 66-15-2 13-9-10-8 22 2"/><path d="m41 53-3-19 11 13 8-17-1 22"/><path d="m53 41 20-4-14 12 17 6-24 2"/></g>
  <path d="M68 24h13v13" fill="none" stroke="#67e8f9" stroke-width="3" stroke-linecap="round" stroke-linejoin="round"/>
  <path d="m58 47 23-23" stroke="#67e8f9" stroke-width="3" stroke-linecap="round"/>
  <circle cx="27" cy="70" r="12" fill="url(#coin)" stroke="#fef3c7" stroke-width="2"/>
  <path d="M22 70h10M27 65v10" stroke="#78350f" stroke-width="2.5" stroke-linecap="round"/>
  <path d="M55 68h27v14H55Z" fill="#3b1a0a" stroke="#fdba74" stroke-width="2.5" stroke-linejoin="round"/>
  <path d="M62 68v-6h13v6M68.5 69v12" fill="none" stroke="#fed7aa" stroke-width="2"/>
</svg>
