<svg xmlns="http://www.w3.org/2000/svg" viewBox="0 0 96 96">
  <defs><linearGradient id="bg" x1="8" y1="8" x2="88" y2="88"><stop stop-color="#422006"/><stop offset="1" stop-color="#1c1917"/></linearGradient></defs>
  <rect x="3" y="3" width="90" height="90" rx="24" fill="url(#bg)" stroke="#fbbf24" stroke-width="3"/>
  <path d="M14 27c12-5 23-3 34 5v45c-11-8-22-10-34-5Zm68 0c-12-5-23-3-34 5v45c11-8 22-10 34-5Z" fill="#fef3c7" stroke="#fbbf24" stroke-width="3" stroke-linejoin="round"/>
  <path d="M24 40h14M24 49h14M24 58h10M58 40h14M58 49h9" stroke="#92400e" stroke-width="3" stroke-linecap="round"/>
  <path d="M71 20c9-9 13-7 9 3L62 58l-8 5 1-9Z" fill="#67e8f9" stroke="#ecfeff" stroke-width="2" stroke-linejoin="round"/>
  <path d="m61 55 8-17" stroke="#164e63" stroke-width="2" stroke-linecap="round"/>
  <circle cx="69" cy="63" r="8" fill="#f59e0b" stroke="#fff7ed" stroke-width="2"/>
  <path d="M67 60c0-3 5-3 5 0 0 2-3 2-3 4M69 68h.1" fill="none" stroke="#451a03" stroke-width="2.5" stroke-linecap="round"/>
</svg>
