<svg xmlns="http://www.w3.org/2000/svg" viewBox="0 0 96 96">
  <defs>
    <linearGradient id="bg" x1="12" y1="8" x2="84" y2="88"><stop stop-color="#071a2d"/><stop offset=".52" stop-color="#101827"/><stop offset="1" stop-color="#260b31"/></linearGradient>
    <linearGradient id="edge" x1="12" y1="10" x2="84" y2="86"><stop stop-color="#67e8f9"/><stop offset=".5" stop-color="#818cf8"/><stop offset="1" stop-color="#f472b6"/></linearGradient>
    <linearGradient id="wolf" x1="23" y1="18" x2="73" y2="76"><stop stop-color="#ecfeff"/><stop offset=".48" stop-color="#67e8f9"/><stop offset=".5" stop-color="#c084fc"/><stop offset="1" stop-color="#f472b6"/></linearGradient>
    <filter id="glow"><feGaussianBlur stdDeviation="2.5" result="b"/><feMerge><feMergeNode in="b"/><feMergeNode in="SourceGraphic"/></feMerge></filter>
  </defs>
  <rect x="3" y="3" width="90" height="90" rx="22" fill="url(#bg)" stroke="url(#edge)" stroke-width="2.5"/>
  <path d="M20 67c-8-11-8-27-1-39M76 67c8-11 8-27 1-39" fill="none" stroke="#22d3ee" stroke-width="2" stroke-linecap="round" opacity=".55"/>
  <path d="M25 58 18 18l20 13 10-10 10 10 20-13-7 40-23 22Z" fill="url(#wolf)" filter="url(#glow)" stroke="#f8fafc" stroke-width="2" stroke-linejoin="round"/>
  <path d="M48 21v59L25 58 18 18l20 13Z" fill="#0e7490" opacity=".38"/>
  <path d="m27 30 12 8-9 5Zm42 0-12 8 9 5Z" fill="#06111f"/>
  <path d="m30 47 12 2-8 8Zm36 0-12 2 8 8Z" fill="#f8fafc"/>
  <path d="m42 61 6 5 6-5-6-3Z" fill="#facc15"/>
  <path d="M48 66 39 72m9-6 9 6" fill="none" stroke="#07111f" stroke-width="2.5" stroke-linecap="round"/>
  <path d="M15 74h16l7 7v-7" fill="none" stroke="#67e8f9" stroke-width="3" stroke-linecap="round" stroke-linejoin="round"/>
</svg>
